<svg id="Layer_1" data-name="Layer 1" xmlns="http://www.w3.org/2000/svg" viewBox="0 0 1553.22 370.12"><defs><style>.cls-1{fill:#fff;}</style></defs><title>EMONDimg</title><path class="cls-1" d="M-42.92-150.67a22.37,22.37,0,0,1-5.61-9.28q-1.72-5.37-8.06-8.79-1-7.32-2.69-16.84t-3.41-19.54q-1.73-10-2.45-20a74.57,74.57,0,0,1,.74-18.31,30.38,30.38,0,0,1,3.17-8.3c1.47-2.6,2.93-5.12,4.4-7.57a34.73,34.73,0,0,0,3.41-7.56,14.26,14.26,0,0,0,.25-7.82,4.17,4.17,0,0,0,3.66-3.17c.49-1.79,2-2.36,4.64-1.71q3.4-10.74,7.32-20t8.3-18.07q4.39-8.77,9-17.82a159,159,0,0,0,8.54-20.26,47.8,47.8,0,0,1-12-16.85,107.5,107.5,0,0,1-5.62-18.31,180.66,180.66,0,0,1-2.93-18.8A104.18,104.18,0,0,0-36.08-429,51.85,51.85,0,0,1-21.92-443.4a83.9,83.9,0,0,1,18.31-9.27,134.63,134.63,0,0,1,21.73-5.86q11.72-2.21,24.9-5.13Q66.45-471,85-475.14T121.14-482q17.58-2.68,36.63-4.88t43.94-6.6q.48,1.47,1.71,1.47h3.17a5.35,5.35,0,0,0,5.37,3.42,14,14,0,0,0-.24-2.69,10.68,10.68,0,0,1-.24-2.2,10.8,10.8,0,0,1,2.68.49c1.14.33,2.11.66,2.93,1a2.12,2.12,0,0,0,2.2-.25c.65-.48.81-1.54.49-3.17a52,52,0,0,0,15.13,16.85,112.89,112.89,0,0,0,20.51,11.47,31.26,31.26,0,0,1,.25,6.35,26,26,0,0,1-.74,3.66,14.13,14.13,0,0,0-.49,3.91,27.08,27.08,0,0,0,1,6.1q-7.81,13.19-17.82,20.51a81,81,0,0,1-21.24,11.23,135.53,135.53,0,0,1-23.68,5.86q-12.45,1.95-25.39,4.15a223.68,223.68,0,0,0-26.13,6.1,108.41,108.41,0,0,0-25.88,11.72,16.63,16.63,0,0,0-7.08-1.22,33.87,33.87,0,0,0-6.59,1.22q-3.42,1-7.57,1.95a25.37,25.37,0,0,1-10,0,23.08,23.08,0,0,1-9,4.89q-5.13,1.45-10.5,2.93A23.16,23.16,0,0,1,66.7-367a23.2,23.2,0,0,0,1.22,9.28,249.54,249.54,0,0,0,45.41-.25q24.9-2.19,48.83-3.17c.32,1.63.16,2.77-.49,3.42a4.76,4.76,0,0,0-1,3.41A43.73,43.73,0,0,1,169-347q3.9,4.4,8.05,8.54a46,46,0,0,0,8.55,6.84,16.55,16.55,0,0,0,10.25,2.2,38.18,38.18,0,0,1,3.42,10.25,19.65,19.65,0,0,1-1.47,11.23q-9.77,6.34-19,12.94a182.59,182.59,0,0,1-19.29,12,111.1,111.1,0,0,1-21.72,8.79,80,80,0,0,1-25.4,2.93H108.2q-1.71,0-4.15-2-4.87,2.44-12.94,1.71t-13.42,1.71a47.13,47.13,0,0,0-15.87-2.44A46.75,46.75,0,0,1,46-274.7q-8.79,12.7-16.6,26.62a211.53,211.53,0,0,0-13.67,29.54q20,2.92,33.2,2.44t24.9-2Q85.5-219.51,98-221a219.11,219.11,0,0,1,30.52-1A94.49,94.49,0,0,1,156.54-230a174.54,174.54,0,0,0,29.55-6.59,17,17,0,0,1,8.3,5.61q3.41,4.16,6.59,8.31a46.17,46.17,0,0,0,6.59,7.08c2.27,2,5.2,2.61,8.79,2a11.6,11.6,0,0,1,3.17,5.86c.49,2.28,1,4.39,1.47,6.35a11.23,11.23,0,0,0,2.19,4.63c1,1.15,2.77,1.55,5.38,1.23q-9.28,19-20.76,29.29a84.65,84.65,0,0,1-25.87,15.87,149.49,149.49,0,0,1-32.23,8.3q-17.84,2.7-39.8,6.59a18.15,18.15,0,0,1-9-.24A23.91,23.91,0,0,0,93.31-137q-13.68,2.44-32.47,4.88a243.83,243.83,0,0,1-37.84,2A168,168,0,0,1-13.62-135Q-31.2-139.44-42.92-150.67Z" transform="translate(65.38 495.4)"/><path class="cls-1" d="M581.11-142.86q-4.89,2.45-9,4.39a22,22,0,0,1-9.52,2q-19-14.16-19.77-49.32t14.89-89.35c1.62-1,2.44-2.93,2.44-5.86l-4.4-4.89a13.49,13.49,0,0,0-3.66.49q-1.71.49-2.68,3.42-12.71,9.28-27.83,19.29A356.47,356.47,0,0,1,490-244.18a208.17,208.17,0,0,1-33.2,13.92,108.19,108.19,0,0,1-33,5.37q-41,0-61.52-41.51l-3.91-7.32-3.91,6.35a57.48,57.48,0,0,0-4.39,8.05q-2.92,6.12-5.86,13.92t-5.13,15.87a41,41,0,0,0-1.71,13.92q-4.4,4.4-9.27,10.25a40.34,40.34,0,0,0-7.33,13.18,9.55,9.55,0,0,0,1,7.33,11,11,0,0,1-4.4,6.83,52.4,52.4,0,0,1-4.15,4.64,24.86,24.86,0,0,0-3.66,4.64,17.56,17.56,0,0,0-1.22,4.88c-.17,1.64-.41,3.26-.73,4.89a19.92,19.92,0,0,1-1,6.34q-8.31,17.1-13.18,22.22t-13.19,5.13a87.37,87.37,0,0,1-12.69-1.47q-6.36-6.84-11.48-18.8a127.27,127.27,0,0,1-7.81-25.63,130.35,130.35,0,0,1-2.44-27.59q.24-13.92,4.64-24.17,0-.48,3.9-9.76t10-23.93q6.1-14.65,13.92-32.47T294-323.77q7.8-16.85,14.89-31a208,208,0,0,1,12-21.49q3.9-5.87,7.08-11t6.11-10a202.12,202.12,0,0,1,16.84-25.15q8.06-10,23.68-15.87,10.74,4.39,15.63,10.25l1,5.37q1.95,4.89,5.86,4.89c3.58,1,6.6,1.87,9,2.68a79.12,79.12,0,0,0,8.05,2.2,51.46,51.46,0,0,1,6.35,9.28q3.9,5.85,7.57,11.47a62.64,62.64,0,0,1,5.86,11.23,35.69,35.69,0,0,1,2.44,11.48,30.33,30.33,0,0,1-2.2,12.2l.49,4.89q2.44,4.4,1,12.2a49.5,49.5,0,0,0-.49,7.08,36.81,36.81,0,0,0,1,8.06q8.79,6.84,15.62,6.84a29.14,29.14,0,0,0,14.41-3.67q6.58-3.66,12.45-7.56a68.79,68.79,0,0,1,7.81-5.13,21.22,21.22,0,0,1,7.81-2.69q8.79-8.3,15.87-14.64T525-364.54a340.81,340.81,0,0,0,28.32-25.39q13.66-13.67,22-34.18A19.61,19.61,0,0,1,585.5-427a29.33,29.33,0,0,1,11.23,2.44q5.87,2.44,11.23,4.88a14.1,14.1,0,0,0,2.69,1.47c.81.33,1.54.66,2.19,1a10.63,10.63,0,0,0,3.91,8.3,30.68,30.68,0,0,1,2.44,2,5.25,5.25,0,0,0,1.47,1q7.32,3.92,9.27,7.81,3.42,11.24,12.21,17.09a18.6,18.6,0,0,0,.24,9,67.22,67.22,0,0,0,3.18,8.55c.32,1,.65,1.95,1,2.93a24.43,24.43,0,0,0,1.46,3.41l-9.28-1,1.47,9.27A38.22,38.22,0,0,1,639-333.78a52,52,0,0,1-5.13,13.19q.48,12.69.73,19.77a68.79,68.79,0,0,1-.73,13.18,79.77,79.77,0,0,1-2.69,11.48,102.68,102.68,0,0,1-4.63,11.72q1.93,31.24-7.08,56.88t-18.8,48.1q-1,2.44-2.2,4.88t-2.2,4.88a59.62,59.62,0,0,0-7.81,3.18Z" transform="translate(65.38 495.4)"/><path class="cls-1" d="M935.11-280.56a32,32,0,0,0,1,11.23,78.14,78.14,0,0,0,3.66,10.5q2.19,5.13,4.15,10.5a67.3,67.3,0,0,1,2.93,10.74,57.08,57.08,0,0,1,0,14.9,83.9,83.9,0,0,1-3.42,15.62,58.61,58.61,0,0,1-6.35,13.67,25.9,25.9,0,0,1-9.27,9,48.1,48.1,0,0,1-16.61,13.67A95.44,95.44,0,0,0,893.12-159a37.17,37.17,0,0,1-12,4.88q-6.58,1.47-13.42,2.93-5.38,2.92-12.7,6.1t-15.14,5.86a91.31,91.31,0,0,1-15.62,3.91,58.34,58.34,0,0,1-13.67.73A128.65,128.65,0,0,1,782-127.48q-13.9,1.71-32.47-2.2a82.48,82.48,0,0,1-32.47-1.46,75.91,75.91,0,0,1-26.37-12.45,91.72,91.72,0,0,1-20-20.51,122.72,122.72,0,0,1-13.92-25.15q-3.91-27.83,2-50.53a170.56,170.56,0,0,1,16.85-42,223,223,0,0,1,25.14-35.64q14.16-16.35,27.35-32c1.95.65,3.49.57,4.64-.25a13,13,0,0,0,3.17-3.42,41.7,41.7,0,0,1,3.17-4.15,7.38,7.38,0,0,1,4.15-2.44,23.57,23.57,0,0,1,10-11,27.1,27.1,0,0,0,10.5-10.5,21.65,21.65,0,0,0,7.33-2.93,46.33,46.33,0,0,0,5.61-4.4c1.79-1.62,3.66-3.17,5.62-4.63a18.86,18.86,0,0,1,6.83-3.18v-5.37q8.79-3.9,12.94-9c2.76-3.42,6.11-7.57,10-12.45a68.8,68.8,0,0,1,7.08-.49,48.78,48.78,0,0,0,8.06-1,57,57,0,0,1,7.08-10.25,46.19,46.19,0,0,1,9.52-7.33,41.19,41.19,0,0,0,12.94,3.91,21.45,21.45,0,0,1,12.45,6.35,12.81,12.81,0,0,0,2.93,7.57,38.91,38.91,0,0,0,5.37,4.88c2,1.46,3.82,3,5.62,4.64a12.76,12.76,0,0,1,3.66,6.83c1.3.33,2.2.17,2.69-.49s1.38-.8,2.68-.48c1,4.56,2.11,7.56,3.42,9s2.6,4.32,3.9,8.54a46.23,46.23,0,0,0-3.66,10,11,11,0,0,1-6.1,7.57q-.5,3.42,1.95,3.66a3.07,3.07,0,0,1,2.93,2.69q.48,4.39-1.46,6.35a324,324,0,0,1,21,40.28A324.06,324.06,0,0,0,935.11-280.56Zm-61,46.39A25.51,25.51,0,0,1,879.2-243c2.11-2.27,3.34-5.69,3.66-10.25a21.56,21.56,0,0,1-2.93-6.11,36.81,36.81,0,0,1-.48-7.08,191.17,191.17,0,0,1-18.56-32.47,248.15,248.15,0,0,0-17.58-32.47,12.13,12.13,0,0,1-3.42,3.91c-1.63,1.3-3.41,1-5.37-1a9.28,9.28,0,0,1-3.41,5.62,7.94,7.94,0,0,1-5.38,1.46,22.13,22.13,0,0,1-6.1-1.46A20.46,20.46,0,0,1,814-326q-14.17,11.25-28.32,22a141.12,141.12,0,0,0-25.4,24.9c-1.3.66-2.12.9-2.44.73s-1.3.09-2.93.73a80.84,80.84,0,0,1-9.52,16.85q-5.61,7.57-11,15.38a102.28,102.28,0,0,0-9.28,16.6,55.74,55.74,0,0,0-4.4,20.51,37.75,37.75,0,0,0,19.54,8.3,109,109,0,0,0,23.19.49,221.05,221.05,0,0,0,23.44-3.17,112.89,112.89,0,0,1,21.24-2.2q20.51-4.87,35.15-12.94T874.07-234.17Z" transform="translate(65.38 495.4)"/><path class="cls-1" d="M1065-222.94a8.86,8.86,0,0,0-6.35,5.13q-2,4.16-3.66,8.54t-3.42,8.06q-1.71,3.66-5.12,3.66a14.1,14.1,0,0,1-2.69,6.84c-1.46,2-2.85,4-4.15,6.1a25.65,25.65,0,0,0-2.93,6.84c-.65,2.44-.33,5.29,1,8.54a12.75,12.75,0,0,0-4.88,8.3q-1,5.38-2.2,10.26a20.13,20.13,0,0,1-4.15,8.3q-2.94,3.42-10.74,2.93c-1,1.3-1.15,2.12-.49,2.44s1.13,1.46,1.46,3.42c-3.58-.65-6.27-.42-8,.73a15.89,15.89,0,0,1-6.6,2.2,32.25,32.25,0,0,1-15.38-10.26,88.52,88.52,0,0,1-10.74-16.35,201,201,0,0,1-8.3-18.32q-3.66-9.25-7.08-16.11a23,23,0,0,0,.49-10.5,21.4,21.4,0,0,0-3.42-8.54q23.92-50.78,52.25-108.4t53.71-113.77q11.22,4.39,22.21,10a114.38,114.38,0,0,1,20,12.94,75.44,75.44,0,0,1,15.38,16.85,53.82,53.82,0,0,1,8.31,21.24c-.66,1.95-1.39,2.68-2.2,2.19s-1.55-.24-2.2.74a12.29,12.29,0,0,1,2.2,3.41,4.06,4.06,0,0,1,0,2,11.15,11.15,0,0,0-.25,2.68,11.23,11.23,0,0,0,1.47,4.64c-1.31-.32-2.2-.16-2.69.49s-1.55.66-3.17,0q2,5.37,1.22,8.79a22.32,22.32,0,0,1-2.2,6.1,32.16,32.16,0,0,0-2.44,5.86q-1,3.18.49,8.06a3,3,0,0,0-2.2.73,9.73,9.73,0,0,0-1.22,1.46,9.89,9.89,0,0,1-1.22,1.47,2,2,0,0,1-2.2.24,119.07,119.07,0,0,1,1,21.49q-.49,10.74-.73,21.73t.24,22.95a133.54,133.54,0,0,0,3.42,24.65,82.52,82.52,0,0,0,28.08-26.36,154.66,154.66,0,0,0,17.09-36.14,260.79,260.79,0,0,0,10-43q3.4-22.95,7.32-46.88a30.57,30.57,0,0,0,6.84-10.74q2.43-6.34,4.39-13.43t3.91-14.16a71,71,0,0,1,4.88-12.94,27.38,27.38,0,0,1,12.45,4.64,90.64,90.64,0,0,1,9.52,7.81,105.55,105.55,0,0,0,9.28,7.81,25.47,25.47,0,0,0,12.21,4.64q5.85,8.31,10.74,16.12a45.2,45.2,0,0,1,6.35,16.6,30,30,0,0,0-3.67,8.79q-1.22,4.88-2.68,9.76a41,41,0,0,1-3.91,9,21.8,21.8,0,0,1-6.83,7.08q-1.47,12.69-3.67,23.19t-4.39,20.75q-2.19,10.26-3.66,21.24a142.56,142.56,0,0,0-1,24.17q-3.91,11.24-8.3,23.93t-6.84,22.95a45.53,45.53,0,0,0-12.2,15.13q-4.39,8.79-9.28,17.58c-1.3,1.31-2.12,1.63-2.44,1s-1.47-1.14-3.42-1.47a4.47,4.47,0,0,1,0,2.93,6.46,6.46,0,0,1-1.22,1.71,3.92,3.92,0,0,0-1,2.2,7.67,7.67,0,0,0,.74,3.91,38.51,38.51,0,0,0-12.21,8.3,94,94,0,0,1-11.48,9.76,34.77,34.77,0,0,1-14.64,5.86q-8.55,1.47-22.22-3.42a187.37,187.37,0,0,1-35.4-33.69Q1074.75-196.56,1065-222.94Z" transform="translate(65.38 495.4)"/><path class="cls-1" d="M1487.84-265.91c-.32,1.64-.65,3-1,4.15s-.66,2.2-1,3.18a11.53,11.53,0,0,0-.49,3.66v5.61a147,147,0,0,1-36.86,43.46,286.4,286.4,0,0,1-48.83,31,589.12,589.12,0,0,1-55.42,24.41q-28.82,11-56.15,23.68-11.73-2.92-17.83-9.76a46.71,46.71,0,0,1-9.27-15.87,90,90,0,0,1-4.4-20q-1.22-11-2.19-22.71a27,27,0,0,1,4.15-9q2.67-3.66,2.68-10.5,3.9-12.69,7.81-24.9a108.83,108.83,0,0,0,4.89-24.9,8.75,8.75,0,0,1,5.37-5.37,244.91,244.91,0,0,0,.24-47.61,253.45,253.45,0,0,0-8-45.17,35.53,35.53,0,0,1,1.22-7.08c.48-1.46.4-2.51-.25-3.17-.33-2.6.57-3.91,2.69-3.91h6.59a42.37,42.37,0,0,0-2.69-14.65q-2.68-7.32-5.12-16.6a50.82,50.82,0,0,0,4.39-14.4,30.51,30.51,0,0,1,4.4-12.45,371,371,0,0,1,50.53,20,224.27,224.27,0,0,0,47.61,17.09Q1398.49-385,1417-372.6a232.73,232.73,0,0,1,33.69,27.35,141.2,141.2,0,0,1,25.39,33.93Q1486.38-292.27,1487.84-265.91ZM1372.12-239q10.26-3.9,20.26-8.3a126.51,126.51,0,0,0,18.56-10,84.47,84.47,0,0,0,15.38-12.94,60.13,60.13,0,0,0,11.23-17.58,37.68,37.68,0,0,0-7.81-10.5q-4.89-4.64-9.77-8.79t-9.52-8.54a34.54,34.54,0,0,1-7.57-10.74,33.51,33.51,0,0,1-11.23-3.67q-4.89-2.67-9.52-5.37t-9.76-5.12a33,33,0,0,0-12-2.93,115.45,115.45,0,0,0-19.28-7.82q-8.55-2.43-12.94-6.34a8.75,8.75,0,0,0-5.38,1.46,330.8,330.8,0,0,1,7.33,34.91,247.3,247.3,0,0,1,2.68,32.72,262.71,262.71,0,0,1-1.7,33.44q-2,17.1-5.38,37.11a31.85,31.85,0,0,0,9-2.19q4.14-1.71,8.3-3.67t8.79-3.66a41.1,41.1,0,0,1,11-2.19,13.4,13.4,0,0,1,4.15-4.89A42,42,0,0,0,1372.12-239Z" transform="translate(65.38 495.4)"/></svg>