<svg id="Layer_1" data-name="Layer 1" xmlns="http://www.w3.org/2000/svg" viewBox="0 0 120.85 220.44"><defs><style>.cls-1{fill:#a9684f;}.cls-2{fill:#7cccc1;}.cls-3{fill:#f4cba8;}.cls-4{fill:#f9d4b0;}.cls-5{fill:#f49d7a;}.cls-6{fill:#301f12;}.cls-7{fill:none;stroke:#a9684f;stroke-linecap:round;stroke-linejoin:round;stroke-width:3px;}.cls-8{fill:#361215;}.cls-9{fill:#f9f8f7;}.cls-10{fill:#2f325d;}.cls-11{fill:#f05581;opacity:0.5;}</style></defs><title>Person1</title><g id="_Group_" data-name="&lt;Group&gt;"><path id="_Path_" data-name="&lt;Path&gt;" class="cls-1" d="M1574.24,51.69V76.43c0,7,1.42,37.5-1.67,57.48,0,0-33.35-6.48-52.06-6.48l.37-94,48.48,2Z" transform="translate(-1460.43 15.7)"/><path id="_Path_2" data-name="&lt;Path&gt;" class="cls-1" d="M1467.49,51.69V76.43c0,7-1.42,37.5,1.67,57.48,0,0,33.35-6.48,52.06-6.48l-.37-94-48.48,2Z" transform="translate(-1460.43 15.7)"/><path id="_Path_3" data-name="&lt;Path&gt;" class="cls-2" d="M1572.57,187.18a51.85,51.85,0,0,0-51.69-51.69h0a51.85,51.85,0,0,0-51.69,51.69h0a17.56,17.56,0,0,0,17.55,17.56H1555a17.56,17.56,0,0,0,17.56-17.56Z" transform="translate(-1460.43 15.7)"/><path id="_Path_4" data-name="&lt;Path&gt;" class="cls-3" d="M1520.88,157h0a10.69,10.69,0,0,1-10.66-10.66l-2-21.72c0-5.86,6.8-10.65,12.66-10.65h0c5.86,0,12.65,4.79,12.65,10.65l-2,21.72A10.68,10.68,0,0,1,1520.88,157Z" transform="translate(-1460.43 15.7)"/><g id="_Group_2" data-name="&lt;Group&gt;"><rect id="_Path_5" data-name="&lt;Path&gt;" class="cls-4" x="14.07" y="9.13" width="92.76" height="137.67" rx="46.38" ry="46.38"/><g id="_Group_3" data-name="&lt;Group&gt;"><path id="_Path_6" data-name="&lt;Path&gt;" class="cls-5" d="M1520.88,95.21h0c-3,0-6.9-2.45-6.9-5.43l1.47-14.73a5.45,5.45,0,0,1,5.43-5.43h0a5.45,5.45,0,0,1,5.43,5.43l1.47,14.73C1527.78,92.76,1523.86,95.21,1520.88,95.21Z" transform="translate(-1460.43 15.7)"/><ellipse id="_Path_7" data-name="&lt;Path&gt;" class="cls-6" cx="82.22" cy="83.6" rx="4.45" ry="5.4"/><ellipse id="_Path_8" data-name="&lt;Path&gt;" class="cls-6" cx="38.69" cy="83.6" rx="4.45" ry="5.4"/><g id="_Group_4" data-name="&lt;Group&gt;"><path id="_Path_9" data-name="&lt;Path&gt;" class="cls-7" d="M1534.07,55.4s3.81-3.71,8.74-3.71a14.42,14.42,0,0,1,9.06,3.58" transform="translate(-1460.43 15.7)"/><path id="_Path_10" data-name="&lt;Path&gt;" class="cls-7" d="M1507.7,55.4s-3.82-3.71-8.75-3.71a14.38,14.38,0,0,0-9,3.58" transform="translate(-1460.43 15.7)"/></g><path id="_Path_11" data-name="&lt;Path&gt;" class="cls-8" d="M1535.41,100.35c-3.2-1.66-6.53,1.54-14.9,1.54s-11.71-3.2-14.9-1.54-1.83,9.51,7.63,12.46a23.17,23.17,0,0,0,14.54,0C1537.24,109.86,1538.6,102,1535.41,100.35Z" transform="translate(-1460.43 15.7)"/><path id="_Path_12" data-name="&lt;Path&gt;" class="cls-9" d="M1509.58,100.13c0,1.3.14,3.33.68,4,1,1.17,5.16,2.15,10.62,2.15s9.63-1,10.61-2.15c.62-.74.71-2.75.68-4.12-2.57.42-5.94,1.91-11.66,1.91C1515.26,101.89,1512,100.68,1509.58,100.13Z" transform="translate(-1460.43 15.7)"/></g></g><path id="_Path_13" data-name="&lt;Path&gt;" class="cls-3" d="M1567.26,59.68a9.72,9.72,0,0,1,8.6-1.5c5,1.5,7.5,9.5,3.25,19s-11.9,6.9-11.9,6.9Z" transform="translate(-1460.43 15.7)"/><path id="_Path_14" data-name="&lt;Path&gt;" class="cls-3" d="M1474.45,59.68a9.75,9.75,0,0,0-8.61-1.5c-5,1.5-7.5,9.5-3.25,19s11.91,6.9,11.91,6.9Z" transform="translate(-1460.43 15.7)"/><path id="_Path_15" data-name="&lt;Path&gt;" class="cls-10" d="M1484.26,38.25" transform="translate(-1460.43 15.7)"/><g id="_Group_5" data-name="&lt;Group&gt;"><ellipse id="_Path_16" data-name="&lt;Path&gt;" class="cls-11" cx="85.7" cy="105.5" rx="6.83" ry="5.4"/><ellipse id="_Path_17" data-name="&lt;Path&gt;" class="cls-11" cx="35.2" cy="105.5" rx="6.83" ry="5.4"/></g><path id="_Path_18" data-name="&lt;Path&gt;" class="cls-1" d="M1574.24,51.69c0-38.74-14.51-67.39-53.36-67.39l0,0v0c-38.85,0-53.36,28.65-53.36,67.39l6.12-8,.89,16a32.61,32.61,0,0,0,4.77-9.79,51.58,51.58,0,0,0,2-7.62l0,0,3.61-.16,1.82-13.75,2.87,13.5s10.15.44,13.31.27l3.17-.16,1.25-10.42s.92,7.08,1.08,8.25l.34,2.33h12.15v0l0,0h3.82l.33-2.33c.17-1.17.5-22.5.5-22.5l1.83,24.67,3.17.16c3.17.17,13.83-1.33,13.83-1.33v-9l2,10,14.12.51a51.24,51.24,0,0,0,2,7.62,32.33,32.33,0,0,0,4.77,9.79l.88-16Z" transform="translate(-1460.43 15.7)"/><path id="_Path_19" data-name="&lt;Path&gt;" class="cls-3" d="M1532,141.23s2.46,9.18,1.52,13.2c-1.35,5.83-12.31,10.71-12.31,13.21v-15.5Z" transform="translate(-1460.43 15.7)"/><path id="_Path_20" data-name="&lt;Path&gt;" class="cls-3" d="M1510.44,141.23s-2.47,9.18-1.53,13.2c1.36,5.83,12.31,10.71,12.31,13.21v-15.5Z" transform="translate(-1460.43 15.7)"/></g></svg>