<svg id="Layer_1" data-name="Layer 1" xmlns="http://www.w3.org/2000/svg" viewBox="0 0 120.85 223.6"><defs><style>.cls-1{fill:#c2cdd3;}.cls-2,.cls-7{fill:none;}.cls-3{fill:#f4cba8;}.cls-4{fill:#f9d4b0;}.cls-5{fill:#f49d7a;}.cls-6{fill:#301f12;}.cls-7{stroke:#643a1a;stroke-linecap:round;stroke-linejoin:round;stroke-width:3px;}.cls-8{fill:#361215;}.cls-9{fill:#f9f8f7;}.cls-10{fill:#2f325d;}.cls-11{fill:#825e3f;}.cls-12{fill:#dcdfe0;}.cls-13{fill:#333;}.cls-14{fill:#e4c6ac;}</style></defs><title>Person3</title><g id="_Group_" data-name="&lt;Group&gt;"><path id="_Path_" data-name="&lt;Path&gt;" class="cls-1" d="M1615.71,771.26A51.84,51.84,0,0,0,1564,719.57h0a51.84,51.84,0,0,0-51.69,51.69h0a17.55,17.55,0,0,0,17.55,17.55h68.27a17.56,17.56,0,0,0,17.56-17.55Z" transform="translate(-1503.56 -565.21)"/><path id="_Path_2" data-name="&lt;Path&gt;" class="cls-2" d="M1571,720.06l.24,10,3.42.35-4.77,4-2.9,7.88-3,5.81v40.73h34.13a17.56,17.56,0,0,0,17.56-17.55h0A51.87,51.87,0,0,0,1571,720.06Z" transform="translate(-1503.56 -565.21)"/><path id="_Path_3" data-name="&lt;Path&gt;" class="cls-3" d="M1564,741.08h0a10.69,10.69,0,0,1-10.66-10.65l-2-21.72c0-5.86,6.8-10.66,12.66-10.66h0c5.86,0,12.65,4.8,12.65,10.66l-2,21.72A10.68,10.68,0,0,1,1564,741.08Z" transform="translate(-1503.56 -565.21)"/><rect id="_Path_4" data-name="&lt;Path&gt;" class="cls-4" x="14.07" y="12.29" width="92.76" height="137.67" rx="46.38" ry="46.38"/><g id="_Group_2" data-name="&lt;Group&gt;"><path id="_Path_5" data-name="&lt;Path&gt;" class="cls-5" d="M1564,679.28h0c-3,0-6.91-2.45-6.91-5.43l1.48-14.73a5.44,5.44,0,0,1,5.43-5.42h0a5.45,5.45,0,0,1,5.43,5.42l1.47,14.73C1570.92,676.83,1567,679.28,1564,679.28Z" transform="translate(-1503.56 -565.21)"/><ellipse id="_Path_6" data-name="&lt;Path&gt;" class="cls-6" cx="82.22" cy="86.76" rx="4.45" ry="5.4"/><ellipse id="_Path_7" data-name="&lt;Path&gt;" class="cls-6" cx="38.69" cy="86.76" rx="4.45" ry="5.4"/><g id="_Group_3" data-name="&lt;Group&gt;"><path id="_Path_8" data-name="&lt;Path&gt;" class="cls-7" d="M1577.21,639.47s3.81-3.71,8.74-3.71a14.38,14.38,0,0,1,9,3.58" transform="translate(-1503.56 -565.21)"/><path id="_Path_9" data-name="&lt;Path&gt;" class="cls-7" d="M1550.83,639.47s-3.81-3.71-8.74-3.71a14.42,14.42,0,0,0-9.06,3.58" transform="translate(-1503.56 -565.21)"/></g><path id="_Path_10" data-name="&lt;Path&gt;" class="cls-8" d="M1578.55,684.42c-3.2-1.65-6.53,1.54-14.9,1.54s-11.71-3.19-14.9-1.54-1.83,9.51,7.63,12.47a23.36,23.36,0,0,0,14.54,0C1580.38,693.93,1581.74,686.08,1578.55,684.42Z" transform="translate(-1503.56 -565.21)"/><path id="_Path_11" data-name="&lt;Path&gt;" class="cls-9" d="M1552.72,684.21c0,1.29.14,3.32.68,4,1,1.17,5.16,2.15,10.62,2.15s9.63-1,10.61-2.15c.62-.74.7-2.74.68-4.11-2.58.41-5.94,1.9-11.66,1.9C1558.4,686,1555.17,684.75,1552.72,684.21Z" transform="translate(-1503.56 -565.21)"/></g><path id="_Path_12" data-name="&lt;Path&gt;" class="cls-3" d="M1610.4,643.75a9.72,9.72,0,0,1,8.6-1.5c5,1.5,7.5,9.5,3.25,19s-11.9,6.9-11.9,6.9Z" transform="translate(-1503.56 -565.21)"/><path id="_Path_13" data-name="&lt;Path&gt;" class="cls-3" d="M1517.59,643.75a9.75,9.75,0,0,0-8.61-1.5c-5,1.5-7.5,9.5-3.25,19s11.91,6.9,11.91,6.9Z" transform="translate(-1503.56 -565.21)"/><path id="_Path_14" data-name="&lt;Path&gt;" class="cls-10" d="M1527.4,622.32" transform="translate(-1503.56 -565.21)"/><g id="_Group_4" data-name="&lt;Group&gt;"><g id="_Group_5" data-name="&lt;Group&gt;"><path id="_Path_15" data-name="&lt;Path&gt;" class="cls-11" d="M1598.45,583.18l1.55,28.65c0,5.25.25,10.75,3,13.5s3,7.78,3,14.14v7.36c0,4.24,4.4,12.82,4.4-3.08,0-3.67,1.27-6.83,2.77-20.08S1609.5,593.3,1598.45,583.18Z" transform="translate(-1503.56 -565.21)"/></g><path id="_Path_16" data-name="&lt;Path&gt;" class="cls-11" d="M1564,589.83c17.73,0,24.66,5.46,28.23,7.25,4.75,2.38,7.75,8.71,7.75,14.75s6.32,0,6.32,0,7.57-3.69.64-17.56c-7.62-15.27-23.76-22.19-42.94-22.19Z" transform="translate(-1503.56 -565.21)"/></g><g id="_Group_6" data-name="&lt;Group&gt;"><g id="_Group_7" data-name="&lt;Group&gt;"><path id="_Path_17" data-name="&lt;Path&gt;" class="cls-11" d="M1529.53,583.18,1528,611.83c0,5.25-.25,10.75-3,13.5s-3,7.78-3,14.14v7.36c0,4.24-4.39,12.82-4.39-3.08,0-3.67-1.28-6.83-2.78-20.08S1518.48,593.3,1529.53,583.18Z" transform="translate(-1503.56 -565.21)"/></g><path id="_Path_18" data-name="&lt;Path&gt;" class="cls-11" d="M1564,589.83c-17.73,0-24.65,5.46-28.23,7.25-4.75,2.38-7.75,8.71-7.75,14.75s-6.32,0-6.32,0-7.57-3.69-.64-17.56c7.63-15.27,23.76-22.19,42.94-22.19Z" transform="translate(-1503.56 -565.21)"/></g><polygon id="_Path_19" data-name="&lt;Path&gt;" class="cls-12" points="79.43 157.99 72.22 153.13 63.45 174.87 73.11 182.12 79.43 157.99"/><polygon id="_Path_20" data-name="&lt;Path&gt;" class="cls-12" points="41.48 157.99 48.68 153.13 57.45 174.87 47.8 182.12 41.48 157.99"/><g id="_Group_8" data-name="&lt;Group&gt;"><polygon id="_Path_21" data-name="&lt;Path&gt;" class="cls-13" points="60.45 183.37 63.45 183.37 66.56 177.21 63.45 174.87 60.45 174.87 60.45 183.37"/><polygon id="_Path_22" data-name="&lt;Path&gt;" class="cls-13" points="67.94 223.6 63.45 183.37 60.45 183.37 60.45 223.6 67.94 223.6"/><polygon id="_Path_23" data-name="&lt;Path&gt;" class="cls-13" points="60.44 183.37 57.44 183.37 54.33 177.21 57.44 174.87 60.44 174.87 60.44 183.37"/><polygon id="_Path_24" data-name="&lt;Path&gt;" class="cls-13" points="52.95 223.6 57.44 183.37 60.44 183.37 60.44 223.6 52.95 223.6"/></g><path id="_Path_25" data-name="&lt;Path&gt;" class="cls-11" d="M1546.19,592.23s6.18,5.27,17.83,5.27,23.15-2.17,29-16,.34-19.67-9.83-14.33-22.67.83-31,7S1546.19,592.23,1546.19,592.23Z" transform="translate(-1503.56 -565.21)"/><path id="_Path_26" data-name="&lt;Path&gt;" class="cls-14" d="M1578.68,712.3c-.14-.11-6.44-5.3-14.67-5.3v8.17h0A39.67,39.67,0,0,0,1578.68,712.3Z" transform="translate(-1503.56 -565.21)"/><path id="_Path_27" data-name="&lt;Path&gt;" class="cls-14" d="M1549.33,712.3c.14-.11,6.44-5.3,14.68-5.3v8.17h0A39.72,39.72,0,0,1,1549.33,712.3Z" transform="translate(-1503.56 -565.21)"/></g></svg>