<svg id="Layer_1" data-name="Layer 1" xmlns="http://www.w3.org/2000/svg" xmlns:xlink="http://www.w3.org/1999/xlink" viewBox="0 0 131.64 218.31"><defs><style>.cls-1{fill:#b53261;}.cls-2{fill:#f4cba8;}.cls-3{fill:#6e0e0f;}.cls-4{fill:url(#linear-gradient);}.cls-5{fill:#f9d4b0;}.cls-6{fill:#f49d7a;}.cls-7{fill:#301f12;}.cls-8{fill:none;stroke:#301826;stroke-linecap:round;stroke-linejoin:round;stroke-width:3px;}.cls-9{fill:#361215;}.cls-10{fill:#f9f8f7;}.cls-11{fill:#f05581;opacity:0.5;}</style><linearGradient id="linear-gradient" x1="1654.39" y1="416.57" x2="1753.42" y2="416.57" gradientUnits="userSpaceOnUse"><stop offset="0" stop-color="#211023"/><stop offset="1" stop-color="#6e0e0f"/></linearGradient></defs><title>Person2</title><path id="_Path_" data-name="&lt;Path&gt;" class="cls-1" d="M1756.06,470.8c0-28.43-29.62-51.69-65.82-51.69h0c-36.2,0-65.82,23.26-65.82,51.69h0c0,9.69,10,17.55,22.35,17.55h86.93c12.35,0,22.36-7.86,22.36-17.55Z" transform="translate(-1624.42 -270.04)"/><path id="_Path_2" data-name="&lt;Path&gt;" class="cls-2" d="M1690.24,440.63h0A10.7,10.7,0,0,1,1679.58,430l-2-21.72c0-5.86,6.8-10.66,12.66-10.66h0c5.86,0,12.65,4.8,12.65,10.66l-2,21.72A10.69,10.69,0,0,1,1690.24,440.63Z" transform="translate(-1624.42 -270.04)"/><path id="_Path_3" data-name="&lt;Path&gt;" class="cls-3" d="M1703.42,423.38s-15,24.66-30,30.35-36,11.29-47.59,6.45c.89-17.05,18.17-22.47,22.23-34.8s-7-57.36-7-57.36Z" transform="translate(-1624.42 -270.04)"/><path id="_Path_4" data-name="&lt;Path&gt;" class="cls-4" d="M1739.62,363.91c0,19.13-10.56,41.13-10.56,48.13s24.36,28.59,24.36,44.32c0,0-16.7-1.73-26.45-1.23s-18,15.5-37.1,14-35.48-45.42-35.48-45.42,21.37,2.44,39.27-9C1712,403,1739.62,363.91,1739.62,363.91Z" transform="translate(-1624.42 -270.04)"/><rect id="_Path_5" data-name="&lt;Path&gt;" class="cls-5" x="19.44" y="7" width="92.76" height="137.67" rx="46.38" ry="46.38"/><g id="_Group_" data-name="&lt;Group&gt;"><path id="_Path_6" data-name="&lt;Path&gt;" class="cls-6" d="M1690.24,378.82h0c-2.42,0-5.58-2.44-5.58-5.43l1.19-14.72c0-3,2-5.43,4.39-5.43h0c2.41,0,4.39,2.44,4.39,5.43l1.19,14.72C1695.82,376.38,1692.65,378.82,1690.24,378.82Z" transform="translate(-1624.42 -270.04)"/><ellipse id="_Path_7" data-name="&lt;Path&gt;" class="cls-7" cx="87.59" cy="81.47" rx="4.45" ry="5.4"/><ellipse id="_Path_8" data-name="&lt;Path&gt;" class="cls-7" cx="44.06" cy="81.47" rx="4.45" ry="5.4"/><g id="_Group_2" data-name="&lt;Group&gt;"><path id="_Path_9" data-name="&lt;Path&gt;" class="cls-8" d="M1703.43,339s3.81-3.71,8.74-3.71a14.42,14.42,0,0,1,9.06,3.58" transform="translate(-1624.42 -270.04)"/><path id="_Path_10" data-name="&lt;Path&gt;" class="cls-8" d="M1677.05,339s-3.81-3.71-8.74-3.71a14.38,14.38,0,0,0-9,3.58" transform="translate(-1624.42 -270.04)"/></g><path id="_Path_11" data-name="&lt;Path&gt;" class="cls-9" d="M1704.77,384c-3.2-1.65-6.53,1.54-14.9,1.54s-11.71-3.19-14.9-1.54-1.83,9.51,7.63,12.47a23.36,23.36,0,0,0,14.54,0C1706.6,393.47,1708,385.62,1704.77,384Z" transform="translate(-1624.42 -270.04)"/><path id="_Path_12" data-name="&lt;Path&gt;" class="cls-10" d="M1678.94,383.75c0,1.29.14,3.32.68,4,1,1.17,5.16,2.15,10.62,2.15s9.63-1,10.61-2.15c.62-.73.71-2.74.68-4.11-2.57.41-5.94,1.9-11.66,1.9C1684.62,385.5,1681.39,384.29,1678.94,383.75Z" transform="translate(-1624.42 -270.04)"/><g id="_Group_3" data-name="&lt;Group&gt;"><ellipse id="_Path_13" data-name="&lt;Path&gt;" class="cls-11" cx="91.07" cy="103.38" rx="6.83" ry="5.4"/><ellipse id="_Path_14" data-name="&lt;Path&gt;" class="cls-11" cx="40.57" cy="103.38" rx="6.83" ry="5.4"/></g></g><path id="_Path_15" data-name="&lt;Path&gt;" class="cls-3" d="M1739.62,363.91V323.42c0-25.51-23.87-53.38-49.38-53.38v35.34c13.23,0,44.79,23,44.79,70.82C1736.06,372.18,1739.62,368.05,1739.62,363.91Z" transform="translate(-1624.42 -270.04)"/><path id="_Path_16" data-name="&lt;Path&gt;" class="cls-3" d="M1641,368l-.18-44.6c0-25.51,23.87-53.38,49.38-53.38v35.34c-13.24,0-44.79,23-44.79,70.82A19.1,19.1,0,0,0,1641,368Z" transform="translate(-1624.42 -270.04)"/></svg>